<svg width="21" height="11" viewBox="0 0 21 11" fill="none" xmlns="http://www.w3.org/2000/svg">
<path d="M0.75 4.4165H2.91667V6.58317H0.75V4.4165ZM0.75 0.0831699H2.91667V2.24984H0.75V0.0831699ZM0.75 8.74984H2.91667V10.9165H0.75V8.74984ZM5.08333 4.4165H20.25V6.58317H5.08333V4.4165ZM5.08333 0.0831699H20.25V2.24984H5.08333V0.0831699ZM5.08333 10.9165V8.74984H20.25V10.9165H5.08333ZM0.75 4.4165H2.91667V6.58317H0.75V4.4165ZM0.75 0.0831699H2.91667V2.24984H0.75V0.0831699ZM0.75 8.74984H2.91667V10.9165H0.75V8.74984ZM5.08333 4.4165H20.25V6.58317H5.08333V4.4165ZM5.08333 0.0831699H20.25V2.24984H5.08333V0.0831699ZM5.08333 10.9165V8.74984H20.25V10.9165H5.08333Z" fill="#353D4D"/>
</svg>
